<svg xmlns="http://www.w3.org/2000/svg" viewBox="0 0 256 256">
  <defs>
    <filter id="glow">
      <feGaussianBlur stdDeviation="4" result="coloredBlur"/>
      <feMerge>
        <feMergeNode in="coloredBlur"/>
        <feMergeNode in="SourceGraphic"/>
      </feMerge>
    </filter>
  </defs>
  <rect width="256" height="256" fill="#1a1a2e"/>
  <g filter="url(#glow)">
    <path d="M140 60 L140 160 C140 175 130 185 115 185 C100 185 90 175 90 160 C90 145 100 135 115 135 C122 135 128 137 133 141 L133 80 L180 70 L180 130 C180 145 170 155 155 155 C140 155 130 145 130 130 C130 115 140 105 155 105 C162 105 168 107 173 111 L173 60 Z" fill="#00ffff" opacity="0.3"/>
    <path d="M140 60 L140 160 C140 175 130 185 115 185 C100 185 90 175 90 160 C90 145 100 135 115 135 C122 135 128 137 133 141 L133 80 L180 70 L180 130 C180 145 170 155 155 155 C140 155 130 145 130 130 C130 115 140 105 155 105 C162 105 168 107 173 111 L173 60 Z" fill="none" stroke="#00ffff" stroke-width="6" stroke-linecap="round" stroke-linejoin="round"/>
    <circle cx="115" cy="160" r="15" fill="#a855f7" opacity="0.4"/>
    <circle cx="115" cy="160" r="15" fill="none" stroke="#a855f7" stroke-width="4"/>
    <circle cx="155" cy="130" r="12" fill="#a855f7" opacity="0.4"/>
    <circle cx="155" cy="130" r="12" fill="none" stroke="#a855f7" stroke-width="4"/>
  </g>
</svg>